<svg id="Layer_1" enable-background="new 0 0 512 512" height="512" viewBox="0 0 512 512" width="512" xmlns="http://www.w3.org/2000/svg"><g><path d="m331.251 467h-24.065c-15.821 0-28.693-12.88-28.693-28.711v-78.547c0-32.194 3.948-53.522 12.803-69.154 8.216-14.505 20.78-24.229 36.687-36.539l3.613-2.8c39.473-30.651 61.408-78.752 58.677-128.668l-.009-.129-8.319-115.491c-.282-3.923-3.547-6.961-7.481-6.961h-182.592c-4.143 0-7.5 3.358-7.5 7.5s3.357 7.5 7.5 7.5h175.613l7.812 108.459c1.142 21.029-2.574 41.697-10.486 60.569-9.077-9-25.465-20.711-49.289-20.711-2.866 0-5.863.247-8.906.734-4.091.655-6.875 4.501-6.22 8.592.655 4.089 4.494 6.869 8.591 6.22 2.262-.362 4.46-.546 6.535-.546 22.384 0 36.708 13.69 42.215 20.143-8.831 15.642-20.755 29.614-35.341 40.941l-3.594 2.785c-1.666 1.289-3.302 2.556-4.91 3.809-.201.111-.4.228-.594.359-18.775 12.694-39.66 19.975-57.298 19.975-18.033 0-39.307-7.556-58.401-20.731-1.444-1.124-2.911-2.26-4.401-3.413l-3.595-2.785c-10.101-7.844-18.924-16.957-26.33-27.014 3.289.989 6.855 1.962 10.641 2.847 10.959 2.562 21.294 3.844 30.909 3.844 6.793 0 13.227-.64 19.269-1.922 12.688-2.691 26.013-10.346 40.12-18.45 5.537-3.181 11.264-6.471 16.895-9.404 3.673-1.913 5.101-6.442 3.187-10.116-1.915-3.674-6.443-5.1-10.116-3.188-5.906 3.076-11.77 6.444-17.438 9.701-.248.143-.494.284-.742.426l-.743-.426c-19.154-11.004-38.962-22.382-58.779-22.382-23.771 0-40.277 11.903-49.27 20.755-7.925-18.883-11.646-39.566-10.505-60.608l7.814-108.463h15.05c4.143 0 7.5-3.358 7.5-7.5s-3.357-7.5-7.5-7.5h-22.029c-3.933 0-7.198 3.038-7.48 6.961l-8.318 115.491-.009.129c-2.731 49.916 19.204 98.016 58.677 128.668l3.613 2.8c15.907 12.31 28.472 22.033 36.687 36.538 8.854 15.632 12.803 36.96 12.803 69.154v78.547c0 15.832-12.872 28.711-28.693 28.711h-24.065c-17.203 0-31.199 14.001-31.199 31.211 0 7.603 6.184 13.789 13.785 13.789h29.203c4.143 0 7.5-3.358 7.5-7.5s-3.357-7.5-7.5-7.5h-27.943c.621-8.375 7.629-15 16.154-15h24.065c24.093 0 43.693-19.609 43.693-43.711v-78.547c0-41.192-6.684-64.853-18.256-82.111 8.782 2.427 17.451 3.7 25.749 3.7 8.285 0 16.963-1.283 25.759-3.717-11.58 17.259-18.268 40.922-18.268 82.129v78.547c0 24.103 19.6 43.711 43.693 43.711h24.065c8.525 0 15.533 6.625 16.154 15h-122.405c-4.143 0-7.5 3.358-7.5 7.5s3.357 7.5 7.5 7.5h123.665c7.602 0 13.785-6.186 13.785-13.789 0-17.21-13.996-31.211-31.199-31.211zm-90.578-272.355c-7.056 3.666-13.701 6.568-19.692 7.839-23.368 4.957-49.766-2.784-63.26-7.761 7.038-6.964 20.028-16.404 38.757-16.404 13.675-.001 29.015 7.748 44.195 16.326z"/></g></svg>